<?xml version="1.0" encoding="UTF-8"?>
<svg xmlns="http://www.w3.org/2000/svg" width="64" height="64" viewBox="0 0 24 24">
  <path d="M12 4c-2-1.7-5.2-1.4-6.9.9s-2.1 5.4-1.2 8.1c1.1 3.2 3.6 6 6.2 8.1a2.2 2.2 0 0 0 2.8 0c2.6-2.1 5.1-4.9 6.2-8.1.9-2.7.5-5.8-1.2-8.1S14 2.3 12 4z" fill="#ff6f61"/>
  <path d="M10.6 5.1c.4-1.5-.4-2.9-1.9-3.2-1-.2-2 .1-2.7.7l3.8 3.4c.5-.2.7-.5.8-.9z" fill="#81c784"/>
  <path d="M13.4 5.1c-.4-1.5.4-2.9 1.9-3.2 1-.2 2 .1 2.7.7l-3.8 3.4c-.5-.2-.7-.5-.8-.9z" fill="#66bb6a"/>
  <path d="M9.2 10.5c-.8 0-1.5.6-1.5 1.4 0 .5.2 1 .6 1.3l2.8 2.4c.5.4 1 .6 1.4.6s.9-.2 1.4-.6l2.8-2.4c.4-.3.6-.8.6-1.3 0-.8-.7-1.4-1.5-1.4-.5 0-1 .2-1.4.5l-2 1.8-2-1.8c-.4-.3-.9-.5-1.4-.5z" fill="#ffcdd2"/>
</svg>
