<svg xmlns="http://www.w3.org/2000/svg" xmlns:xlink="http://www.w3.org/1999/xlink" width="1587" zoomAndPan="magnify" viewBox="0 0 1190.25 1683.749949" height="2245" preserveAspectRatio="xMidYMid meet" version="1.0"><defs><g/><clipPath id="1dcac7afa5"><path d="M 1.015625 2 L 1059.683594 2 L 1059.683594 653 L 1.015625 653 Z M 1.015625 2 " clip-rule="nonzero"/></clipPath><clipPath id="1419ba72d4"><rect x="0" width="1060" y="0" height="654"/></clipPath></defs><g transform="matrix(1, 0, 0, 1, 11, 547)"><g clip-path="url(#1419ba72d4)"><g fill="#00bf63" fill-opacity="1"><g transform="translate(387.44715, 391.216497)"><g><path d="M 134.640625 0 L 10 0 L 10 -26.21875 L 54.765625 -71.46875 C 68.015625 -85.050781 76.671875 -94.460938 80.734375 -99.703125 C 84.804688 -104.953125 87.734375 -109.8125 89.515625 -114.28125 C 91.304688 -118.75 92.203125 -123.382812 92.203125 -128.1875 C 92.203125 -135.34375 90.226562 -140.664062 86.28125 -144.15625 C 82.34375 -147.65625 77.082031 -149.40625 70.5 -149.40625 C 63.582031 -149.40625 56.867188 -147.816406 50.359375 -144.640625 C 43.859375 -141.472656 37.070312 -136.960938 30 -131.109375 L 9.515625 -155.375 C 18.296875 -162.863281 25.570312 -168.148438 31.34375 -171.234375 C 37.113281 -174.328125 43.414062 -176.707031 50.25 -178.375 C 57.082031 -180.039062 64.722656 -180.875 73.171875 -180.875 C 84.316406 -180.875 94.15625 -178.835938 102.6875 -174.765625 C 111.226562 -170.703125 117.851562 -165.007812 122.5625 -157.6875 C 127.28125 -150.375 129.640625 -142.003906 129.640625 -132.578125 C 129.640625 -124.359375 128.195312 -116.648438 125.3125 -109.453125 C 122.425781 -102.265625 117.953125 -94.890625 111.890625 -87.328125 C 105.835938 -79.765625 95.171875 -68.988281 79.890625 -55 L 56.953125 -33.421875 L 56.953125 -31.703125 L 134.640625 -31.703125 Z M 134.640625 0 "/></g></g></g><g fill="#00bf63" fill-opacity="1"><g transform="translate(530.263887, 391.216497)"><g><path d="M 174.84375 -153.613281 L 73.183594 -153.613281 L 73.183594 -177.089844 L 174.84375 -177.089844 Z M 206.316406 -203.070312 L 43.460938 -203.070312 L 43.460938 -127.886719 L 206.316406 -127.886719 Z M 235.039062 -85.421875 L 235.039062 -112.148438 L 13.738281 -112.148438 L 13.738281 -85.421875 L 60.445312 -85.421875 C 55.699219 -69.1875 49.457031 -52.203125 44.460938 -39.964844 L 62.695312 -39.964844 L 62.695312 -39.714844 L 171.847656 -39.714844 C 168.597656 -21.730469 164.851562 -12.238281 160.355469 -8.492188 C 157.109375 -6.496094 153.863281 -6.246094 148.367188 -6.246094 C 140.625 -6.246094 122.140625 -6.496094 105.65625 -7.992188 C 111.152344 0 115.148438 11.738281 115.894531 20.230469 C 133.132812 21.230469 149.367188 20.980469 159.109375 20.480469 C 170.597656 19.730469 178.839844 17.984375 186.332031 10.988281 C 195.074219 2.746094 201.070312 -15.984375 206.066406 -54.203125 C 206.816406 -58.199219 207.566406 -66.691406 207.566406 -66.691406 L 87.921875 -66.691406 C 90.167969 -72.933594 92.167969 -79.179688 94.164062 -85.421875 Z M 235.039062 -85.421875 "/></g></g></g><g clip-path="url(#1dcac7afa5)"><path fill="#ff3131" d="M 45.359375 2.347656 C 33.125 2.347656 22.070312 7.285156 14.074219 15.28125 C 6.070312 23.28125 1.015625 34.453125 1.015625 46.566406 L 1.015625 223.222656 C 1.015625 228.167969 4.074219 232.867188 9.128906 234.632812 C 28.417969 241.574219 44.882812 254.277344 56.527344 270.742188 C 67.820312 286.734375 74.40625 306.378906 74.40625 327.433594 C 74.40625 348.484375 67.820312 368.125 56.527344 384.125 C 45 400.472656 28.652344 413.175781 9.484375 420.113281 C 4.542969 421.644531 1.015625 426.230469 1.015625 431.640625 L 1.015625 608.296875 C 1.015625 620.414062 6.070312 631.585938 14.074219 639.585938 C 22.070312 647.582031 33.125 652.519531 45.359375 652.519531 L 1015.207031 652.519531 C 1027.441406 652.519531 1038.496094 647.578125 1046.609375 639.585938 C 1054.609375 631.585938 1059.550781 620.414062 1059.550781 608.296875 L 1059.550781 434.933594 C 1059.550781 429.519531 1055.785156 424.582031 1050.257812 423.171875 C 1028.5 417.878906 1009.5625 405.292969 996.035156 388.242188 C 982.980469 371.539062 975.101562 350.367188 975.101562 327.433594 C 975.101562 304.496094 982.980469 283.328125 996.035156 266.628906 C 1009.328125 249.691406 1028.027344 237.34375 1049.433594 231.933594 C 1055.199219 230.992188 1059.550781 225.933594 1059.550781 219.929688 L 1059.550781 46.570312 C 1059.550781 34.453125 1054.605469 23.28125 1046.609375 15.285156 C 1038.496094 7.285156 1027.441406 2.351562 1015.207031 2.351562 L 45.359375 2.351562 Z M 45.359375 2.347656 " fill-opacity="1" fill-rule="evenodd"/></g><path fill="#ffbd59" d="M 249.769531 592.890625 C 249.769531 586.1875 255.179688 580.65625 261.882812 580.65625 C 268.589844 580.65625 274 586.1875 274 592.890625 L 274 628.292969 L 1015.207031 628.292969 C 1020.734375 628.292969 1025.792969 626.058594 1029.441406 622.414062 C 1033.085938 618.765625 1035.324219 613.828125 1035.324219 608.296875 L 1035.324219 443.992188 C 1012.035156 436.347656 991.804688 422 977.101562 403.179688 C 960.636719 382.363281 950.871094 356.015625 950.871094 327.433594 C 950.871094 298.851562 960.636719 272.511719 977.101562 251.691406 C 991.804688 232.871094 1012.035156 218.523438 1035.324219 210.878906 L 1035.324219 46.570312 C 1035.324219 41.042969 1033.085938 36.101562 1029.441406 32.457031 C 1025.792969 28.8125 1020.734375 26.578125 1015.207031 26.578125 L 274 26.578125 L 274 57.980469 C 274 64.683594 268.589844 70.097656 261.882812 70.097656 C 255.179688 70.097656 249.769531 64.683594 249.769531 57.980469 L 249.769531 26.578125 L 45.359375 26.578125 C 39.832031 26.578125 34.773438 28.8125 31.125 32.457031 C 27.476562 36.105469 25.246094 41.042969 25.246094 46.570312 L 25.246094 214.992188 C 45.832031 224.046875 63.472656 238.636719 76.289062 256.867188 C 90.402344 276.859375 98.636719 301.203125 98.636719 327.433594 C 98.636719 353.664062 90.40625 378.011719 76.289062 398.003906 C 63.46875 416.234375 45.828125 430.703125 25.246094 439.878906 L 25.246094 608.300781 C 25.246094 613.828125 27.476562 618.765625 31.125 622.414062 C 34.773438 626.0625 39.832031 628.296875 45.359375 628.296875 L 249.769531 628.296875 Z M 249.769531 496.445312 C 249.769531 489.742188 255.179688 484.332031 261.882812 484.332031 C 268.589844 484.332031 274 489.742188 274 496.445312 L 274 539.960938 C 274 546.664062 268.589844 552.078125 261.882812 552.078125 C 255.179688 552.078125 249.769531 546.664062 249.769531 539.960938 Z M 249.769531 400 C 249.769531 393.296875 255.179688 387.886719 261.882812 387.886719 C 268.589844 387.886719 274 393.296875 274 400 L 274 443.519531 C 274 450.222656 268.589844 455.632812 261.882812 455.632812 C 255.179688 455.632812 249.769531 450.222656 249.769531 443.519531 Z M 249.769531 303.558594 C 249.769531 296.972656 255.179688 291.441406 261.882812 291.441406 C 268.589844 291.441406 274 296.972656 274 303.558594 L 274 347.195312 C 274 353.898438 268.589844 359.308594 261.882812 359.308594 C 255.179688 359.308594 249.769531 353.898438 249.769531 347.195312 Z M 249.769531 207.230469 C 249.769531 200.53125 255.179688 195.117188 261.882812 195.117188 C 268.589844 195.117188 274 200.53125 274 207.230469 L 274 250.75 C 274 257.453125 268.589844 262.863281 261.882812 262.863281 C 255.179688 262.863281 249.769531 257.453125 249.769531 250.75 Z M 249.769531 110.789062 C 249.769531 104.085938 255.179688 98.675781 261.882812 98.675781 C 268.589844 98.675781 274 104.085938 274 110.789062 L 274 154.304688 C 274 161.007812 268.589844 166.421875 261.882812 166.421875 C 255.179688 166.421875 249.769531 161.007812 249.769531 154.304688 Z M 829.964844 203.820312 C 830.789062 206.761719 830.4375 210.054688 828.789062 212.875 L 861.71875 212.875 C 866.539062 212.875 871.128906 214.875 874.304688 218.167969 C 874.65625 218.519531 875.011719 218.875 875.363281 219.34375 C 877.953125 222.402344 879.597656 226.402344 879.597656 230.753906 L 879.597656 279.445312 C 879.597656 284.386719 877.597656 288.851562 874.304688 292.03125 L 874.304688 292.148438 C 871.128906 295.324219 866.539062 297.320312 861.71875 297.320312 L 850.78125 297.320312 L 850.78125 529.375 C 850.78125 537.964844 847.25 545.726562 841.726562 551.371094 C 836.078125 556.894531 828.320312 560.429688 819.730469 560.429688 L 547.335938 560.429688 C 543.335938 566.425781 538.753906 572.066406 533.578125 577.128906 C 513.699219 597.121094 486.058594 609.46875 455.714844 609.46875 C 425.371094 609.46875 397.613281 597.121094 377.738281 577.128906 C 357.742188 557.25 345.390625 529.609375 345.390625 499.265625 C 345.390625 468.921875 357.742188 441.164062 377.738281 421.285156 C 391.144531 407.761719 408.199219 397.761719 427.132812 392.707031 L 427.132812 297.320312 L 418.664062 297.320312 C 413.726562 297.320312 409.253906 295.324219 406.082031 292.148438 L 405.960938 292.03125 C 402.789062 288.851562 400.785156 284.386719 400.785156 279.445312 L 400.785156 230.753906 C 400.785156 225.933594 402.789062 221.460938 405.960938 218.167969 L 406.082031 218.167969 C 409.253906 214.875 413.722656 212.875 418.664062 212.875 L 451.480469 212.875 C 450.066406 210.523438 449.597656 207.582031 450.066406 204.640625 C 454.183594 182.296875 461.714844 161.246094 472.0625 142.074219 C 482.527344 122.785156 495.9375 105.378906 511.582031 90.558594 C 514.640625 87.5 519.226562 85.96875 523.695312 87.378906 C 546.039062 93.730469 566.625 104.316406 584.972656 118.078125 C 601.085938 130.308594 615.433594 145.242188 627.429688 162.066406 C 631.546875 161.355469 635.78125 160.886719 640.132812 160.886719 C 644.484375 160.886719 648.722656 161.355469 652.832031 162.066406 C 664.714844 145.246094 679.0625 130.308594 695.296875 118.078125 C 713.527344 104.3125 734.226562 93.730469 756.453125 87.378906 C 760.925781 85.96875 765.628906 87.5 768.570312 90.558594 C 784.445312 105.492188 797.855469 122.898438 808.324219 142.1875 C 818.4375 160.890625 825.847656 181.589844 829.964844 203.816406 Z M 829.964844 203.820312 " fill-opacity="1" fill-rule="evenodd"/><path fill="#fff9f3" d="M 956.046875 362.8125 C 952.679688 351.605469 950.871094 339.726562 950.871094 327.433594 C 950.871094 298.855469 960.632812 272.511719 977.101562 251.691406 C 991.804688 232.871094 1012.035156 218.523438 1035.320312 210.878906 L 1035.320312 46.570312 C 1035.320312 41.042969 1033.082031 36.101562 1029.441406 32.457031 C 1025.792969 28.8125 1020.734375 26.578125 1015.207031 26.578125 L 274 26.578125 L 274 57.980469 C 274 64.683594 268.589844 70.097656 261.882812 70.097656 C 255.179688 70.097656 249.769531 64.683594 249.769531 57.980469 L 249.769531 26.578125 L 183.339844 26.578125 C 199.964844 87.765625 227.054688 144.632812 262.597656 195.140625 C 268.96875 195.507812 273.996094 200.769531 273.996094 207.230469 L 273.996094 210.734375 C 315.703125 265.730469 367.707031 312.480469 427.128906 348.140625 L 427.128906 297.324219 L 418.660156 297.324219 C 413.722656 297.324219 409.25 295.328125 406.078125 292.152344 L 405.960938 292.035156 C 402.785156 288.859375 400.785156 284.390625 400.785156 279.449219 L 400.785156 230.757812 C 400.785156 225.9375 402.785156 221.464844 405.960938 218.171875 L 406.078125 218.171875 C 409.25 214.878906 413.722656 212.882812 418.660156 212.882812 L 451.480469 212.882812 C 450.066406 210.527344 449.59375 207.585938 450.066406 204.648438 C 454.183594 182.304688 461.710938 161.25 472.058594 142.078125 C 482.527344 122.789062 495.9375 105.382812 511.578125 90.5625 C 514.636719 87.503906 519.226562 85.972656 523.691406 87.382812 C 546.039062 93.734375 566.621094 104.320312 584.96875 118.082031 C 601.085938 130.3125 615.433594 145.246094 627.429688 162.070312 C 631.546875 161.363281 635.78125 160.890625 640.132812 160.890625 C 644.480469 160.890625 648.71875 161.363281 652.832031 162.070312 C 664.710938 145.25 679.0625 130.3125 695.292969 118.082031 C 713.523438 104.316406 734.222656 93.734375 756.449219 87.382812 C 760.921875 85.972656 765.628906 87.503906 768.566406 90.5625 C 784.445312 105.496094 797.851562 122.902344 808.320312 142.191406 C 818.433594 160.894531 825.84375 181.59375 829.964844 203.820312 C 830.785156 206.765625 830.433594 210.054688 828.785156 212.878906 L 861.71875 212.878906 C 866.539062 212.878906 871.128906 214.878906 874.300781 218.167969 C 874.652344 218.523438 875.007812 218.878906 875.363281 219.347656 C 877.949219 222.402344 879.597656 226.402344 879.597656 230.753906 L 879.597656 279.449219 C 879.597656 284.390625 877.59375 288.855469 874.300781 292.03125 L 874.300781 292.148438 C 871.128906 295.324219 866.539062 297.324219 861.71875 297.324219 L 850.78125 297.324219 L 850.78125 404.78125 C 887.613281 394.445312 922.847656 380.300781 956.046875 362.8125 Z M 249.769531 110.789062 C 249.769531 104.085938 255.179688 98.675781 261.882812 98.675781 C 268.589844 98.675781 274 104.085938 274 110.789062 L 274 154.304688 C 274 161.007812 268.589844 166.421875 261.882812 166.421875 C 255.179688 166.421875 249.769531 161.007812 249.769531 154.304688 Z M 249.769531 110.789062 " fill-opacity="1" fill-rule="evenodd"/><path fill="#ffbd59" d="M 440.894531 548.902344 C 437.601562 554.667969 430.1875 556.667969 424.429688 553.371094 C 418.664062 549.960938 416.667969 542.667969 419.957031 536.90625 L 470.414062 449.519531 C 473.710938 443.753906 481.121094 441.753906 486.882812 445.046875 C 492.648438 448.339844 494.648438 455.75 491.351562 461.511719 L 440.894531 548.898438 Z M 491.9375 517.144531 C 481.121094 517.144531 472.296875 525.96875 472.296875 536.789062 C 472.296875 547.605469 481.121094 556.429688 491.9375 556.429688 C 502.753906 556.429688 511.578125 547.605469 511.578125 536.789062 C 511.578125 525.96875 502.757812 517.144531 491.9375 517.144531 Z M 419.371094 441.992188 C 408.550781 441.992188 399.847656 450.8125 399.847656 461.632812 C 399.847656 472.453125 408.546875 481.273438 419.371094 481.273438 C 430.195312 481.273438 439.011719 472.453125 439.011719 461.632812 C 439.011719 450.8125 430.1875 441.992188 419.371094 441.992188 Z M 516.519531 438.34375 C 500.875 422.820312 479.472656 413.175781 455.714844 413.175781 C 431.957031 413.175781 410.433594 422.820312 394.792969 438.34375 C 379.265625 453.988281 369.621094 475.394531 369.621094 499.269531 C 369.621094 522.910156 379.265625 544.433594 394.792969 560.078125 C 410.433594 575.601562 431.960938 585.246094 455.714844 585.246094 C 479.46875 585.246094 500.875 575.597656 516.519531 560.078125 C 521.8125 554.785156 526.402344 548.789062 530.167969 542.320312 L 530.167969 542.203125 C 537.457031 529.617188 541.691406 514.914062 541.691406 499.273438 C 541.691406 475.398438 532.046875 453.992188 516.519531 438.347656 Z M 516.519531 438.34375 " fill-opacity="1" fill-rule="evenodd"/><path fill="#fff9f3" d="M 688.945312 234.050781 C 710.9375 236.398438 733.519531 235.574219 753.628906 231.109375 C 768.449219 227.929688 781.859375 222.757812 792.441406 215.582031 C 792.796875 215.230469 793.269531 214.878906 793.734375 214.644531 C 795.148438 213.582031 796.5625 212.527344 797.96875 211.351562 C 786.207031 207.824219 772.449219 206.644531 757.628906 208.175781 C 737.28125 210.171875 714.933594 216.996094 691.882812 229.230469 C 691.058594 230.875 690 232.40625 688.941406 234.050781 Z M 688.945312 234.050781 " fill-opacity="1" fill-rule="evenodd"/><path fill="#fff9f3" d="M 803.617188 237.105469 L 855.371094 237.105469 L 855.371094 273.097656 L 425.015625 273.097656 L 425.015625 237.105469 L 477.121094 237.105469 C 489.941406 245.335938 505.230469 251.21875 521.933594 254.867188 C 552.511719 261.449219 587.914062 260.863281 619.910156 253.925781 C 626.140625 255.925781 632.960938 257.097656 640.136719 257.097656 C 647.308594 257.097656 654.128906 255.921875 660.480469 253.925781 C 692.589844 260.867188 728.109375 261.570312 758.6875 254.867188 C 775.390625 251.21875 790.800781 245.335938 803.617188 237.105469 Z M 803.617188 237.105469 " fill-opacity="1" fill-rule="evenodd"/><path fill="#ffbd59" d="M 455.714844 388.945312 C 486.058594 388.945312 513.699219 401.296875 533.578125 421.289062 C 553.570312 441.164062 565.917969 468.804688 565.917969 499.269531 C 565.917969 512.207031 563.683594 524.671875 559.566406 536.199219 L 598.734375 536.199219 L 598.734375 297.324219 L 451.363281 297.324219 L 451.363281 389.0625 C 452.773438 388.945312 454.183594 388.945312 455.714844 388.945312 Z M 455.714844 388.945312 " fill-opacity="1" fill-rule="evenodd"/><path fill="#fff9f3" d="M 598.734375 414.398438 L 598.734375 297.324219 L 451.363281 297.324219 L 451.363281 361.828125 C 496.992188 386.09375 546.5 404.015625 598.734375 414.398438 Z M 598.734375 414.398438 " fill-opacity="1" fill-rule="evenodd"/><path fill="#fff9f3" d="M 696.238281 200.175781 C 694.003906 190.0625 688.003906 181 679.417969 174.179688 C 678.242188 173.242188 677.066406 172.300781 675.890625 171.476562 C 685.652344 158.539062 697.175781 147.128906 709.878906 137.367188 C 723.992188 126.664062 739.753906 118.316406 756.570312 112.550781 C 768.449219 124.664062 778.800781 138.425781 787.035156 153.714844 C 792.679688 164.1875 797.503906 175.359375 801.03125 187.121094 C 787.273438 183.589844 771.746094 182.53125 755.277344 184.0625 C 736.695312 185.941406 716.699219 191.238281 696.234375 200.175781 Z M 696.238281 200.175781 " fill-opacity="1" fill-rule="evenodd"/><path fill="#fff9f3" d="M 479.238281 187.234375 C 482.882812 175.472656 487.585938 164.183594 493.351562 153.601562 C 501.585938 138.3125 511.816406 124.550781 523.578125 112.550781 C 540.398438 118.316406 556.160156 126.664062 570.390625 137.367188 C 583.09375 147.125 594.5 158.535156 604.382812 171.476562 C 603.085938 172.300781 601.910156 173.242188 600.734375 174.179688 C 592.265625 181 586.265625 189.945312 584.035156 200.054688 C 563.800781 191.117188 543.925781 185.941406 525.460938 184.0625 C 508.761719 182.414062 493.117188 183.59375 479.238281 187.234375 Z M 479.238281 187.234375 " fill-opacity="1" fill-rule="evenodd"/><path fill="#fff9f3" d="M 588.152344 228.875 C 589.089844 230.636719 590.148438 232.402344 591.324219 234.050781 C 569.449219 236.398438 547.105469 235.457031 527.105469 231.109375 C 512.171875 227.929688 498.878906 222.757812 488.292969 215.582031 C 487.941406 215.230469 487.472656 214.878906 487 214.644531 C 485.46875 213.582031 484.175781 212.527344 482.765625 211.351562 C 494.523438 207.824219 508.167969 206.644531 523.105469 208.175781 C 543.214844 210.171875 565.332031 216.878906 588.148438 228.875 Z M 588.152344 228.875 " fill-opacity="1" fill-rule="evenodd"/><path fill="#fff9f3" d="M 664.363281 193 C 669.65625 197.234375 672.949219 202.878906 672.949219 208.996094 C 672.949219 215.113281 669.65625 220.753906 664.363281 224.988281 C 658.363281 229.8125 649.78125 232.867188 640.132812 232.867188 C 634.84375 232.867188 629.902344 231.929688 625.550781 230.398438 C 625.082031 230.164062 624.726562 230.046875 624.253906 229.808594 C 621.078125 228.515625 618.257812 226.984375 615.902344 224.984375 C 610.492188 220.75 607.320312 215.105469 607.320312 208.992188 C 607.320312 202.878906 610.492188 197.230469 615.902344 193 C 618.730469 190.644531 622.136719 188.765625 626.019531 187.46875 L 626.257812 187.347656 C 630.492188 185.9375 635.195312 185.113281 640.132812 185.113281 C 645.070312 185.113281 649.777344 185.9375 653.898438 187.347656 L 654.128906 187.46875 C 658.015625 188.765625 661.539062 190.644531 664.363281 193 Z M 664.363281 193 " fill-opacity="1" fill-rule="evenodd"/><path fill="#ffbd59" d="M 622.964844 297.324219 L 657.304688 297.324219 L 657.304688 536.199219 L 622.964844 536.199219 Z M 622.964844 297.324219 " fill-opacity="1" fill-rule="nonzero"/><path fill="#fff9f3" d="M 622.964844 297.324219 L 657.304688 297.324219 L 657.304688 422.71875 C 645.753906 421.714844 634.296875 420.382812 622.964844 418.664062 Z M 622.964844 297.324219 " fill-opacity="1" fill-rule="evenodd"/><path fill="#ffbd59" d="M 681.535156 297.324219 L 826.558594 297.324219 L 826.558594 529.378906 C 826.558594 531.261719 825.730469 532.910156 824.554688 534.203125 C 823.261719 535.375 821.617188 536.199219 819.734375 536.199219 L 681.539062 536.199219 L 681.539062 297.324219 Z M 681.535156 297.324219 " fill-opacity="1" fill-rule="evenodd"/><path fill="#fff9f3" d="M 681.535156 297.324219 L 826.558594 297.324219 L 826.558594 410.988281 C 787.375 420.023438 746.566406 424.804688 704.636719 424.804688 C 696.894531 424.804688 689.199219 424.601562 681.535156 424.28125 L 681.535156 297.320312 Z M 681.535156 297.324219 " fill-opacity="1" fill-rule="evenodd"/></g></g></svg>