<?xml version="1.0" encoding="UTF-8"?>
<svg xmlns="http://www.w3.org/2000/svg" width="64" height="64" viewBox="0 0 24 24">
  <path d="M7.2 7c-1.2 0-2.3 1-2.3 2.3v2.1l2.8-1.3a3.6 3.6 0 0 1 3.3.2l1 .6 1-.6a3.6 3.6 0 0 1 3.3-.2l2.8 1.3V9.3c0-1.3-1.1-2.3-2.3-2.3-.8 0-1.6.3-2.1.9L12 10.2l-1.7-2c-.5-.6-1.3-.9-2.1-.9z" fill="#ffe082"/>
  <path d="M4.6 12.7C2.8 13.9 1.5 15.7 1.5 17.7c0 2.6 2.3 4.3 4.5 4.3 2 0 3.8-1.1 6-3.1 2.2 2 4 3.1 6 3.1 2.2 0 4.5-1.7 4.5-4.3 0-2-1.3-3.8-3.1-4.9l-2.6-1.7a2.7 2.7 0 0 0-2.9.1L12 12.8l-1.9-1.4a2.7 2.7 0 0 0-2.9-.1z" fill="#ffb74d"/>
  <path d="M5.6 17.5c0 .9.7 1.6 1.5 1.6.7 0 1.3-.3 2-.8l2.9-2.3a1.5 1.5 0 0 1 1.9 0l2.9 2.3c.7.5 1.3.8 2 .8.8 0 1.5-.7 1.5-1.6 0-.8-.4-1.6-1.2-2.2l-3.2-2.3a2.5 2.5 0 0 0-2.8 0l-1.2.9-1.2-.9a2.5 2.5 0 0 0-2.8 0l-3.2 2.3c-.8.6-1.2 1.4-1.2 2.2z" fill="#ffe0b2"/>
</svg>
