<svg xmlns="http://www.w3.org/2000/svg" xmlns:xlink="http://www.w3.org/1999/xlink" width="1587" zoomAndPan="magnify" viewBox="0 0 1190.25 1683.749949" height="2245" preserveAspectRatio="xMidYMid meet" version="1.0"><defs><clipPath id="6bb43f3457"><path d="M 301 895 L 830 895 L 830 1430.023438 L 301 1430.023438 Z M 301 895 " clip-rule="nonzero"/></clipPath><clipPath id="e98387006b"><path d="M 291 885 L 840 885 L 840 1430.023438 L 291 1430.023438 Z M 291 885 " clip-rule="nonzero"/></clipPath><clipPath id="d9de9db1b8"><path d="M 18 240.523438 L 790 240.523438 L 790 1430.023438 L 18 1430.023438 Z M 18 240.523438 " clip-rule="nonzero"/></clipPath><clipPath id="369833b135"><path d="M 8 240.523438 L 800 240.523438 L 800 1430.023438 L 8 1430.023438 Z M 8 240.523438 " clip-rule="nonzero"/></clipPath><clipPath id="37835edadc"><path d="M 97 246 L 722 246 L 722 1430.023438 L 97 1430.023438 Z M 97 246 " clip-rule="nonzero"/></clipPath><clipPath id="7b56492756"><path d="M 501 1359 L 535 1359 L 535 1430.023438 L 501 1430.023438 Z M 501 1359 " clip-rule="nonzero"/></clipPath><clipPath id="0cbe650d4d"><path d="M 491 1349 L 545 1349 L 545 1430.023438 L 491 1430.023438 Z M 491 1349 " clip-rule="nonzero"/></clipPath><clipPath id="55ab93ea35"><path d="M 816 711 L 1077 711 L 1077 1430.023438 L 816 1430.023438 Z M 816 711 " clip-rule="nonzero"/></clipPath></defs><g clip-path="url(#6bb43f3457)"><path fill="#ffffff" d="M 801.105469 1578.484375 C 844.863281 1520.515625 832.140625 1431.066406 806.835938 1367.738281 C 772.011719 1280.59375 740.605469 1202.160156 737.554688 1105.640625 C 737.183594 1093.511719 753.480469 893.703125 741.722656 895.933594 C 741.722656 895.933594 544.890625 933.367188 544.371094 933.441406 C 544.296875 933.441406 561.261719 1020.285156 561.710938 1026.164062 C 564.761719 1066.871094 552.183594 1102.292969 518.398438 1127.074219 C 489.078125 1148.652344 453.285156 1159.074219 420.542969 1175.148438 C 339.425781 1214.8125 301.699219 1330.675781 301.699219 1594.039062 " fill-opacity="1" fill-rule="nonzero"/></g><g clip-path="url(#e98387006b)"><path stroke-linecap="round" transform="matrix(0.744165, 0, 0, -0.744168, -984.367218, 2459.953337)" fill="none" stroke-linejoin="round" d="M 2399.297732 1184.502009 C 2458.098978 1262.399364 2441.002419 1382.599602 2406.99827 1467.698788 C 2360.201884 1584.802029 2317.998525 1690.19967 2313.89892 1819.900866 C 2313.400249 1836.199471 2335.299802 2104.698636 2319.499789 2101.701373 C 2319.499789 2101.701373 2054.999161 2051.398788 2054.301021 2051.299054 C 2054.201287 2051.299054 2076.998449 1934.599998 2077.602104 1926.70003 C 2081.701709 1871.99866 2064.799369 1824.399386 2019.399263 1791.098792 C 1979.998963 1762.102499 1931.900782 1748.097772 1887.902206 1726.497528 C 1778.897859 1673.19768 1728.201337 1517.502704 1728.201337 1163.599901 " stroke="#040505" stroke-width="27.047001" stroke-opacity="1" stroke-miterlimit="10"/></g><path stroke-linecap="round" transform="matrix(0.744165, 0, 0, -0.744168, -984.367218, 2459.953337)" fill-opacity="1" fill="#ffffff" fill-rule="nonzero" stroke-linejoin="round" d="M 2125.002145 1927.298433 C 2015.698596 1961.900816 1947.501327 1980.797749 1868.401525 2049.099661 C 1742.699555 2157.799017 1692.302236 2409.301441 1663.001347 2499.901734 C 1595.197767 2709.201009 1715.199133 2874.900862 1930.997924 2944.798516 C 1934.499123 2945.900837 1938.000322 2946.997909 1941.401787 2948.000496 C 1944.897737 2949.202551 1948.299202 2950.399356 1951.800401 2951.501677 C 2077.297652 2992.198321 2203.298824 2949.900687 2291.799898 2855.300543 C 2337.598941 2806.399481 2392.69952 2657.801353 2412.998076 2594.601612 C 2442.797636 2501.397741 2455.899575 2471.498595 2520.401424 2413.999428 C 2547.702378 2389.701123 2555.098464 2389.202454 2538.201373 2364.101028 C 2517.6981 2333.59823 2499.100276 2325.598528 2506.401877 2286.09869 C 2512.401683 2253.102546 2543.098853 2093.197753 2521.498502 2053.598181 C 2504.09749 2021.798843 2387.802041 1994.802475 2295.999237 1968.598729 " stroke="#040505" stroke-width="27.047001" stroke-opacity="1" stroke-miterlimit="10"/><g clip-path="url(#d9de9db1b8)"><path fill="#ffffff" d="M 210.984375 1562.261719 C 158.59375 1516.050781 100.847656 1461.875 100.550781 1392.070312 C 100.105469 1301.507812 198.632812 1220.988281 168.789062 1135.484375 C 158.074219 1104.523438 132.25 1081.753906 109.554688 1058.164062 C 70.335938 1017.53125 37.222656 969.160156 24.273438 914.167969 C 11.324219 859.171875 21.222656 796.960938 59.027344 754.988281 C 91.324219 719.121094 141.925781 698.878906 162.464844 655.195312 C 186.128906 604.667969 159.933594 546.472656 152.195312 491.253906 C 136.792969 380.746094 208.304688 264.210938 313.902344 227.96875 C 380.355469 205.121094 461.320312 186.742188 529.785156 177.515625 C 588.574219 169.550781 652.570312 146.707031 703.84375 176.695312 C 738.449219 196.863281 756.679688 236.378906 768.4375 274.703125 C 772.828125 288.917969 776.476562 302.757812 779.527344 316.449219 C 797.832031 399.128906 791.65625 473.542969 757.351562 554.734375 C 739.9375 595.738281 716.496094 636.515625 681.59375 665.167969 C 646.023438 694.339844 607.773438 727.902344 563.273438 742.636719 C 533.355469 752.605469 502.546875 758.859375 484.242188 787.285156 C 472.929688 804.773438 468.6875 826.578125 472.632812 846.96875 C 482.976562 900.472656 528.667969 911.933594 558.136719 949.292969 C 583.363281 981.289062 594.082031 1028.023438 591.328125 1069.324219 C 589.09375 1102.738281 574.285156 1136.449219 547.050781 1156.019531 C 514.753906 1179.3125 472.039062 1179.3125 432.449219 1183.925781 C 392.933594 1188.617188 348.730469 1203.351562 333.699219 1240.1875 " fill-opacity="1" fill-rule="nonzero"/></g><g clip-path="url(#369833b135)"><path stroke-linecap="round" transform="matrix(0.744165, 0, 0, -0.744168, -984.367218, 2459.953337)" fill="none" stroke-linejoin="round" d="M 1606.29977 1206.30172 C 1535.897848 1268.39914 1458.299309 1341.199572 1457.900372 1435.001846 C 1457.301966 1556.698091 1589.701881 1664.898777 1549.598192 1779.797376 C 1535.199708 1821.402123 1500.497419 1851.999406 1469.999718 1883.69901 C 1417.298011 1938.300647 1372.800764 2003.300846 1355.399752 2077.19835 C 1337.99874 2151.101104 1351.300147 2234.699034 1402.101653 2291.101128 C 1445.501823 2339.298804 1513.499623 2366.499889 1541.09978 2425.20111 C 1572.899276 2493.098838 1537.698315 2571.300644 1527.299701 2645.502599 C 1506.602208 2794.000994 1602.698836 2950.598824 1744.599756 2999.300418 C 1833.898704 3030.002685 1942.698333 3054.699926 2034.700605 3067.098413 C 2113.700674 3077.801426 2199.697891 3108.498443 2268.598549 3068.200734 C 2315.100981 3041.099383 2339.598876 2987.999003 2355.39889 2936.499613 C 2361.298961 2917.397963 2366.20169 2898.800232 2370.301295 2880.401969 C 2394.898924 2769.298504 2386.59998 2669.302236 2340.501734 2560.198696 C 2317.100916 2505.098391 2285.600623 2450.302535 2238.699254 2411.800035 C 2190.900275 2372.599399 2139.500364 2327.49872 2079.701774 2307.698934 C 2039.49835 2294.303108 1998.098115 2285.899222 1973.500486 2247.701173 C 1958.298878 2224.200738 1952.598275 2194.899994 1957.899941 2167.499442 C 1971.799754 2095.601863 2033.199342 2080.200863 2072.79911 2029.998012 C 2106.698276 1987.002241 2121.102009 1924.201436 2117.401341 1868.702195 C 2114.398814 1823.800983 2094.499195 1778.500837 2057.901954 1752.202606 C 2014.501784 1720.901937 1957.102067 1720.901937 1903.901688 1714.702693 C 1850.801044 1708.398466 1791.401392 1688.59868 1771.20257 1639.099215 " stroke="#040505" stroke-width="27.047001" stroke-opacity="1" stroke-miterlimit="10"/></g><g clip-path="url(#37835edadc)"><path fill="#fac57d" d="M 226.835938 1521.183594 C 134.261719 1554.894531 151.972656 1316.015625 170.652344 1277.320312 C 180.25 1257.527344 192.902344 1239.292969 201.234375 1218.976562 C 224.082031 1163.3125 214.78125 1074.460938 196.175781 1017.457031 C 176.378906 956.734375 117.667969 920.789062 102.335938 855.304688 C 91.84375 810.800781 99.878906 760.496094 130.390625 726.5625 C 156.585938 697.464844 197.515625 681.09375 214.109375 645.671875 C 233.234375 604.816406 212.027344 557.785156 205.851562 513.058594 C 193.347656 423.609375 251.242188 329.324219 336.675781 300.003906 C 390.476562 281.476562 455.964844 266.664062 511.402344 259.148438 C 558.957031 252.675781 610.75 234.21875 652.273438 258.480469 C 680.253906 274.851562 695.0625 306.777344 704.589844 337.808594 C 708.085938 349.269531 711.0625 360.503906 713.519531 371.59375 C 728.328125 438.417969 723.34375 498.699219 695.585938 564.40625 C 681.519531 597.597656 662.542969 630.636719 634.265625 653.78125 C 576.296875 701.335938 544.964844 715.921875 472.632812 736.90625 C 437.359375 747.25 401.042969 769.5 392.933594 805.292969 C 383.332031 847.933594 416.96875 887.226562 449.117188 916.921875 C 481.191406 946.613281 517.355469 981.664062 514.304688 1025.269531 C 511.179688 1070.960938 466.382812 1101.398438 424.335938 1119.484375 C 382.292969 1137.492188 334.664062 1153.117188 310.554688 1192.039062 C 291.875 1222.179688 291.800781 1259.757812 290.015625 1295.253906 C 286.964844 1354.417969 277.363281 1413.28125 261.511719 1470.359375 C 255.78125 1490.972656 246.851562 1513.890625 226.835938 1521.183594 " fill-opacity="1" fill-rule="nonzero"/></g><g clip-path="url(#7b56492756)"><path fill="#ffffff" d="M 534.101562 1359.476562 C 518.769531 1432.851562 507.832031 1507.121094 501.507812 1581.761719 " fill-opacity="1" fill-rule="nonzero"/></g><g clip-path="url(#0cbe650d4d)"><path stroke-linecap="round" transform="matrix(0.744165, 0, 0, -0.744168, -984.367218, 2459.953337)" fill="none" stroke-linejoin="round" d="M 2040.500943 1478.800736 C 2019.897935 1380.200741 2005.200248 1280.398692 1996.701835 1180.097973 " stroke="#040505" stroke-width="27.047001" stroke-opacity="1" stroke-miterlimit="10"/></g><path stroke-linecap="round" transform="matrix(0.744165, 0, 0, -0.744168, -984.367218, 2459.953337)" fill-opacity="1" fill="#ffffff" fill-rule="nonzero" stroke-linejoin="round" d="M 2397.098328 1490.501087 C 2397.098328 1490.501087 2297.999172 1399.701326 2029.199471 1421.102102 " stroke="#040505" stroke-width="27.047001" stroke-opacity="1" stroke-miterlimit="10"/><path fill="#ffffff" d="M 307.578125 612.257812 C 349.921875 628.109375 392.484375 697.167969 381.472656 726.5625 C 370.460938 755.882812 295.371094 773.964844 252.957031 758.1875 C 210.539062 742.261719 216.417969 699.996094 227.355469 670.601562 C 238.371094 641.207031 265.160156 596.332031 307.578125 612.257812 " fill-opacity="1" fill-rule="nonzero"/><path stroke-linecap="round" transform="matrix(0.744165, 0, 0, -0.744168, -984.367218, 2459.953337)" fill="none" stroke-linejoin="round" d="M 1736.101344 2482.899744 C 1793.00239 2461.598702 1850.197389 2368.799016 1835.399968 2329.299177 C 1820.602546 2289.899073 1719.697675 2265.600767 1662.702144 2286.802076 C 1605.701364 2308.197603 1613.601371 2364.998632 1628.299058 2404.498471 C 1643.101728 2443.998309 1679.100563 2504.30052 1736.101344 2482.899744 Z M 1736.101344 2482.899744 " stroke="#040505" stroke-width="22.208" stroke-opacity="1" stroke-miterlimit="10"/><path fill="#ffffff" d="M 267.839844 773.371094 C 298.199219 739.734375 378.050781 725.59375 401.34375 746.652344 C 424.632812 767.714844 413.769531 844.214844 383.40625 877.777344 C 353.121094 911.414062 315.910156 890.425781 292.621094 869.367188 C 269.328125 848.382812 237.476562 806.933594 267.839844 773.371094 " fill-opacity="1" fill-rule="nonzero"/><path stroke-linecap="round" transform="matrix(0.744165, 0, 0, -0.744168, -984.367218, 2459.953337)" fill="none" stroke-linejoin="round" d="M 1682.701497 2266.398638 C 1723.498077 2311.599051 1830.801691 2330.600966 1862.102516 2302.297561 C 1893.398091 2273.999404 1878.800138 2171.200091 1837.998309 2126.099412 C 1797.301463 2080.898999 1747.297832 2109.097422 1716.002257 2137.400828 C 1684.701432 2165.59925 1641.899668 2221.297959 1682.701497 2266.398638 Z M 1682.701497 2266.398638 " stroke="#040505" stroke-width="22.208" stroke-opacity="1" stroke-miterlimit="10"/><path fill="#ffffff" d="M 425.824219 881.273438 C 395.761719 847.414062 390.476562 766.523438 413.992188 745.6875 C 437.433594 724.851562 512.296875 743.976562 542.359375 777.835938 C 572.425781 811.695312 547.421875 846.371094 523.980469 867.210938 C 500.539062 887.972656 455.890625 915.132812 425.824219 881.273438 " fill-opacity="1" fill-rule="nonzero"/><path stroke-linecap="round" transform="matrix(0.744165, 0, 0, -0.744168, -984.367218, 2459.953337)" fill="none" stroke-linejoin="round" d="M 1894.999089 2121.401425 C 1854.601446 2166.901039 1847.499314 2275.600394 1879.099341 2303.599349 C 1910.599634 2331.598304 2011.200054 2305.898476 2051.597696 2260.398862 C 2092.000589 2214.899248 2058.400626 2168.297312 2026.900333 2140.298357 C 1995.40004 2112.399136 1935.401981 2075.901811 1894.999089 2121.401425 Z M 1894.999089 2121.401425 " stroke="#040505" stroke-width="22.208" stroke-opacity="1" stroke-miterlimit="10"/><path fill="#ffffff" d="M 504.78125 612.257812 C 462.363281 628.109375 419.871094 697.167969 430.8125 726.5625 C 441.824219 755.882812 516.984375 773.964844 559.328125 758.1875 C 601.746094 742.261719 595.941406 699.996094 584.925781 670.601562 C 573.914062 641.207031 547.125 596.332031 504.78125 612.257812 " fill-opacity="1" fill-rule="nonzero"/><path stroke-linecap="round" transform="matrix(0.744165, 0, 0, -0.744168, -984.367218, 2459.953337)" fill="none" stroke-linejoin="round" d="M 2001.100643 2482.899744 C 1944.099863 2461.598702 1886.999348 2368.799016 1901.702284 2329.299177 C 1916.499706 2289.899073 2017.499062 2265.600767 2074.400108 2286.802076 C 2131.400888 2308.197603 2123.600616 2364.998632 2108.797945 2404.498471 C 2094.000524 2443.998309 2058.001689 2504.30052 2001.100643 2482.899744 Z M 2001.100643 2482.899744 " stroke="#040505" stroke-width="22.208" stroke-opacity="1" stroke-miterlimit="10"/><path fill="#ffffff" d="M 482.828125 591.199219 C 482.828125 636.441406 433.042969 700.515625 401.714844 700.515625 C 370.308594 700.515625 327.074219 636.441406 327.074219 591.199219 C 327.074219 545.953125 368.671875 536.574219 400.078125 536.574219 C 431.480469 536.574219 482.828125 545.953125 482.828125 591.199219 " fill-opacity="1" fill-rule="nonzero"/><path stroke-linecap="round" transform="matrix(0.744165, 0, 0, -0.744168, -984.367218, 2459.953337)" fill="none" stroke-linejoin="round" d="M 1971.600285 2511.1979 C 1971.600285 2450.402269 1904.699563 2364.300496 1862.601187 2364.300496 C 1820.397829 2364.300496 1762.299971 2450.402269 1762.299971 2511.1979 C 1762.299971 2571.998781 1818.198425 2584.601985 1860.401784 2584.601985 C 1902.599893 2584.601985 1971.600285 2571.998781 1971.600285 2511.1979 Z M 1971.600285 2511.1979 " stroke="#040505" stroke-width="22.208" stroke-opacity="1" stroke-miterlimit="10"/><path fill="#fac57d" d="M 460.207031 593.726562 C 460.207031 625.800781 424.933594 671.195312 402.679688 671.195312 C 380.429688 671.195312 349.695312 625.800781 349.695312 593.726562 C 349.695312 561.652344 379.242188 554.957031 401.492188 554.957031 C 423.742188 554.957031 460.207031 561.652344 460.207031 593.726562 " fill-opacity="1" fill-rule="nonzero"/><path fill="#fac57d" d="M 548.390625 736.757812 C 518.695312 748.960938 463.332031 733.558594 454.847656 712.945312 C 446.4375 692.40625 476.800781 646.785156 506.492188 634.582031 C 536.109375 622.378906 553.523438 647.234375 561.933594 667.773438 C 570.417969 688.386719 578.082031 724.625 548.390625 736.757812 " fill-opacity="1" fill-rule="nonzero"/><path fill="#fac57d" d="M 439.515625 862.746094 C 417.863281 839.078125 413.25 781.777344 429.621094 766.820312 C 446.066406 751.789062 499.347656 764.589844 521.003906 788.253906 C 542.660156 811.917969 525.320312 836.773438 508.875 851.730469 C 492.503906 866.761719 461.097656 886.484375 439.515625 862.746094 " fill-opacity="1" fill-rule="nonzero"/><path fill="#fac57d" d="M 285.179688 787.210938 C 305.34375 762.207031 361.304688 749.035156 378.644531 763.027344 C 395.910156 777.015625 391.296875 831.5625 371.128906 856.566406 C 351.035156 881.496094 323.875 868.175781 306.535156 854.1875 C 289.195312 840.195312 265.011719 812.140625 285.179688 787.210938 " fill-opacity="1" fill-rule="nonzero"/><path fill="#fac57d" d="M 304.675781 633.914062 C 335.1875 643.734375 367.632812 691.214844 360.859375 712.347656 C 354.085938 733.558594 301.476562 748.886719 270.890625 739.0625 C 240.304688 729.316406 243.058594 699.175781 249.828125 677.96875 C 256.601562 656.757812 274.089844 624.089844 304.675781 633.914062 " fill-opacity="1" fill-rule="nonzero"/><path fill="#ffffff" d="M 462.140625 721.425781 C 462.140625 752.980469 436.539062 778.652344 404.988281 778.652344 C 373.363281 778.652344 347.761719 752.980469 347.761719 721.425781 C 347.761719 689.875 373.363281 664.273438 404.988281 664.273438 C 436.542969 664.273438 462.140625 689.875 462.140625 721.425781 " fill-opacity="1" fill-rule="nonzero"/><path stroke-linecap="round" transform="matrix(0.744165, 0, 0, -0.744168, -984.367218, 2459.953337)" fill="none" stroke-linejoin="round" d="M 1943.80066 2336.201807 C 1943.80066 2293.79919 1909.397573 2259.30179 1866.999995 2259.30179 C 1824.497433 2259.30179 1790.099596 2293.79919 1790.099596 2336.201807 C 1790.099596 2378.599175 1824.497433 2413.00209 1866.999995 2413.00209 C 1909.397573 2413.00209 1943.80066 2378.599175 1943.80066 2336.201807 Z M 1943.80066 2336.201807 " stroke="#040505" stroke-width="22.208" stroke-opacity="1" stroke-miterlimit="10"/><g clip-path="url(#55ab93ea35)"><path stroke-linecap="round" transform="matrix(0.744165, 0, 0, -0.744168, -984.367218, 2459.953337)" fill="none" stroke-linejoin="round" d="M 2434.498692 1170.901466 C 2483.499731 1184.701476 2512.900355 1233.602538 2535.697517 1279.201886 C 2697.902242 1604.302614 2772.298785 1972.498846 2750.498966 2335.099486 " stroke="#040505" stroke-width="30" stroke-opacity="1" stroke-miterlimit="10"/></g><path fill="#ffffff" d="M 938.332031 729.761719 C 938.332031 729.761719 1067.21875 755.808594 1058.511719 872.789062 C 1058.511719 872.789062 1000.246094 921.609375 938.332031 729.761719 " fill-opacity="1" fill-rule="nonzero"/><path stroke-linecap="round" transform="matrix(0.744165, 0, 0, -0.744168, -984.367218, 2459.953337)" fill="none" stroke-linejoin="round" d="M 2583.701213 2325.000125 C 2583.701213 2325.000125 2756.897709 2289.998807 2745.202549 2132.802574 C 2745.202549 2132.802574 2666.900621 2067.198723 2583.701213 2325.000125 Z M 2583.701213 2325.000125 " stroke="#040505" stroke-width="30" stroke-opacity="1" stroke-miterlimit="10"/><path fill="#ffffff" d="M 913.550781 971.167969 C 913.550781 971.167969 1042.441406 997.289062 1033.734375 1114.199219 C 1033.734375 1114.199219 975.464844 1163.089844 913.550781 971.167969 " fill-opacity="1" fill-rule="nonzero"/><path stroke-linecap="round" transform="matrix(0.744165, 0, 0, -0.744168, -984.367218, 2459.953337)" fill="none" stroke-linejoin="round" d="M 2550.400454 2000.597534 C 2550.400454 2000.597534 2723.602198 1965.501731 2711.901789 1808.399983 C 2711.901789 1808.399983 2633.599861 1742.701648 2550.400454 2000.597534 Z M 2550.400454 2000.597534 " stroke="#040505" stroke-width="30" stroke-opacity="1" stroke-miterlimit="10"/><path fill="#ffffff" d="M 851.636719 1175.445312 C 851.636719 1175.445312 980.597656 1201.5625 971.820312 1318.546875 C 971.820312 1318.546875 913.550781 1367.363281 851.636719 1175.445312 " fill-opacity="1" fill-rule="nonzero"/><path stroke-linecap="round" transform="matrix(0.744165, 0, 0, -0.744168, -984.367218, 2459.953337)" fill="none" stroke-linejoin="round" d="M 2467.201046 1726.098593 C 2467.201046 1726.098593 2640.502525 1690.997541 2628.702382 1533.801308 C 2628.702382 1533.801308 2550.400454 1468.197457 2467.201046 1726.098593 Z M 2467.201046 1726.098593 " stroke="#040505" stroke-width="30" stroke-opacity="1" stroke-miterlimit="10"/><path fill="#ffffff" d="M 1176.539062 847.339844 C 1176.539062 847.339844 1047.574219 873.460938 1056.355469 990.445312 C 1052.785156 997.511719 1095.050781 1077.882812 1176.539062 847.339844 " fill-opacity="1" fill-rule="nonzero"/><path stroke-linecap="round" transform="matrix(0.744165, 0, 0, -0.744168, -984.367218, 2459.953337)" fill="none" stroke-linejoin="round" d="M 2903.801092 2167.000773 C 2903.801092 2167.000773 2730.499613 2131.899721 2742.299756 1974.698239 C 2737.502011 1965.20253 2794.298073 1857.201312 2903.801092 2167.000773 Z M 2903.801092 2167.000773 " stroke="#040505" stroke-width="30" stroke-opacity="1" stroke-miterlimit="10"/><path fill="#ffffff" d="M 1051.59375 535.386719 C 1051.59375 535.386719 977.773438 644.257812 1065.882812 721.722656 C 1065.882812 721.722656 1130.25 661.59375 1051.59375 535.382812 " fill-opacity="1" fill-rule="nonzero"/><path stroke-linecap="round" transform="matrix(0.744165, 0, 0, -0.744168, -984.367218, 2459.953337)" fill="none" stroke-linejoin="round" d="M 2735.901013 2586.197726 C 2735.901013 2586.197726 2636.702123 2439.898724 2755.102491 2335.797623 C 2755.102491 2335.797623 2841.59838 2416.597757 2735.901013 2586.197726 Z M 2735.901013 2586.197726 " stroke="#040505" stroke-width="30" stroke-opacity="1" stroke-miterlimit="10"/><path fill="#ffffff" d="M 1164.035156 1158.179688 C 1164.035156 1158.179688 1032.914062 1147.164062 1008.507812 1261.84375 C 1008.507812 1261.84375 1050.773438 1325.097656 1164.035156 1158.179688 " fill-opacity="1" fill-rule="nonzero"/><path stroke-linecap="round" transform="matrix(0.744165, 0, 0, -0.744168, -984.367218, 2459.953337)" fill="none" stroke-linejoin="round" d="M 2886.998486 1749.299827 C 2886.998486 1749.299827 2710.799463 1764.102424 2678.002624 1609.997939 C 2678.002624 1609.997939 2734.798686 1524.998487 2886.998486 1749.299827 Z M 2886.998486 1749.299827 " stroke="#040505" stroke-width="30" stroke-opacity="1" stroke-miterlimit="10"/></svg>