<?xml version="1.0" encoding="UTF-8"?>
<svg xmlns="http://www.w3.org/2000/svg" width="64" height="64" viewBox="0 0 24 24">
  <path d="M12 3.5 15 9.2l4.8 1.6-3.6 1.2 2 4.6L12 14.7 5.8 16.6l2-4.6-3.6-1.2L9 9.2z" fill="#9575cd"/>
  <path d="M12 3.5 14 8.1 12 9.2 10 8.1z" fill="#d1c4e9"/>
  <path d="M7.2 12.5c-1.7 0-3 1.4-3 3.1 0 1.6 1.1 3 2.7 3.4 1.5.4 3.2.6 5.1.6s3.6-.2 5.1-.6c1.6-.4 2.7-1.8 2.7-3.4 0-1.7-1.3-3.1-3-3.1-.6 0-1.2.2-1.7.4l-3.1 1.7-3.1-1.7c-.5-.2-1.1-.4-1.7-.4z" fill="#7e57c2"/>
  <path d="M7.2 12.5c-.8 0-1.6.3-2.1.9.3 1.7 1.6 3.2 3.5 3.8l2.7.8 2.7-.8c1.9-.6 3.2-2.1 3.5-3.8-.5-.6-1.3-.9-2.1-.9-.5 0-1 .1-1.5.3L12 14.5l-1.9-1.7c-.5-.2-1-.3-1.5-.3z" fill="#b39ddb"/>
</svg>
